<svg width="24" height="24" viewBox="0 0 24 24" fill="none" xmlns="http://www.w3.org/2000/svg">
<path d="M5.99405 15.4558C2.23123 10.5929 2.79376 5.95501 7.29415 4.81741C8.66927 4.46738 10.432 4.86742 11.4071 5.74249L11.9071 6.19253L12.6447 5.75499C16.9075 3.17977 22.158 7.93018 19.9328 12.3431C17.9076 16.3559 11.3196 20.6688 9.96944 18.8686C9.5694 18.3311 9.76941 18.2561 10.832 18.5186C11.8446 18.7686 16.52 14.6183 17.6826 12.4306C19.0827 9.80535 18.8077 8.38022 16.57 6.58006C15.6449 5.8425 14.2073 6.16753 13.0822 7.39263C12.1946 8.34271 11.2695 8.41773 10.507 7.21762C8.34427 3.84233 4.79395 6.51756 5.80654 10.7554C6.23157 12.5056 6.69414 13.3807 8.45679 15.7059C9.6569 17.281 9.69436 17.356 9.29433 17.5685C8.53176 17.9811 7.34417 17.2185 5.99405 15.4558Z" fill="#FCF3D9"/>
<path d="M15.2824 8.23033C14.6698 8.11782 15.1824 7.43026 15.7574 7.63027C16.2325 7.80529 16.895 8.09281 17.1576 8.83038C17.4451 9.60544 16.87 10.3555 16.545 10.268C16.2574 10.193 16.17 9.86797 16.2075 9.20541C16.245 8.54285 15.8949 8.34284 15.2824 8.23033Z" fill="#FCF3D9"/>
<path d="M16.6826 12.193C15.87 12.3805 15.2574 11.768 15.62 11.3554C15.895 11.0554 16.9326 11.0304 17.2326 11.3304C17.4826 11.593 17.3201 12.043 16.6826 12.193Z" fill="#FCF3D9"/>
</svg>
