<svg width="24" height="24" viewBox="0 0 24 24" fill="none" xmlns="http://www.w3.org/2000/svg">
<path d="M17.0724 5.50186C14.368 4.12815 12.6937 5.3194 14.7006 5.79162C19.7877 6.99361 20.4852 13.2719 15.6021 16.7813C9.80678 20.9346 2.53043 15.311 6.22227 9.53712C7.78916 7.0902 9.55997 5.77016 11.3308 5.7165C12.8869 5.67357 12.3933 4.89012 10.8049 4.89012C6.88768 4.89012 2.66997 9.88055 3.45341 13.5939C4.0866 16.631 6.57646 18.6058 10.3864 19.078C19.2618 20.1834 24.6064 9.32249 17.0724 5.50186Z" fill="#FCF3D9"/>
<path d="M10.5043 13.83C10.0321 13.0788 9.98923 13.0466 9.51702 13.0788C8.28283 13.1754 9.09848 14.9354 10.6546 15.515C11.9425 15.9979 13.9386 15.7403 14.6148 15.0213C15.6343 13.9373 15.3875 12.2202 14.3142 12.9285C14.2498 12.9715 14.0996 13.229 13.9816 13.4866C13.1874 15.2467 11.481 15.4076 10.5043 13.83Z" fill="#FCF3D9"/>
<path d="M15.1729 10.3958C14.7865 9.47286 14.1856 9.24748 13.7563 9.86994C13.2411 10.6319 13.5309 11.3402 14.3573 11.3402C15.1837 11.3402 15.4412 11.0505 15.1729 10.3958Z" fill="#FCF3D9"/>
<path d="M10.7191 10.546C10.7191 9.7948 10.2361 9.45136 9.57075 9.73039C8.96976 9.97723 8.6907 11.1148 9.11998 11.5119C9.79611 12.1237 10.7191 11.5549 10.7191 10.546Z" fill="#FCF3D9"/>
</svg>
