<svg width="24" height="24" viewBox="0 0 24 24" fill="none" xmlns="http://www.w3.org/2000/svg">
<path d="M20.2496 10.3823C17.4478 7.62242 15.1375 5.59434 13.6217 4.67438C12.3463 3.90078 11.3322 3.78578 10.1195 4.72665C8.83366 5.73025 7.06692 7.5388 4.94474 9.34732C2.27894 11.6264 2.94799 13.4349 4.77746 13.6126L5.61379 13.6963C5.64515 14.3444 5.78104 18.1184 5.86468 18.6724C5.89604 18.9024 5.8647 19.1638 5.78107 19.2474C5.16428 19.8642 7.20282 20.0732 11.1126 19.8015C18.556 19.2788 19.1518 19.1847 18.6291 18.5992C18.441 18.3902 18.6082 13.2363 18.6082 13.2363L19.0786 13.0795C20.8036 12.5254 21.2845 11.3964 20.2496 10.3823ZM10.8304 18.6306C10.684 17.4806 10.4958 15.9125 10.799 15.0135C11.259 14.0726 12.0221 13.7799 12.7435 14.2504C13.3916 14.679 13.6425 15.4212 13.653 16.9789L13.6635 18.3902C13.6635 18.3797 11.4263 18.5574 10.8304 18.6306ZM17.2178 18.2751L14.8134 18.3379C14.8134 18.3379 14.7924 17.6793 14.7297 16.7698C14.5834 14.3967 13.9039 13.5499 12.1371 13.5604C9.95227 13.5708 9.32496 14.7417 9.76401 18.0138L9.85818 18.7143H7.62094L7.21325 13.8949C7.11916 12.7972 7.41188 12.4209 10.245 9.90141C12.0639 8.2915 11.6877 8.3542 12.8898 9.4414C13.747 10.2151 17.2074 13.2049 17.2074 13.2049V18.2751H17.2178ZM18.7651 12.2223C18.2214 12.7658 17.7719 12.5254 15.6079 10.4869C11.5726 6.70246 12.1476 6.72337 8.47821 10.2569C7.26553 11.4172 6.55467 12.0968 6.09468 12.4522C5.13291 13.184 4.4743 12.0654 4.99701 11.2709C5.38381 10.6751 6.32466 9.72375 8.16458 7.84198C11.5204 4.40258 11.5726 4.36075 12.3567 4.95664C12.5657 5.11345 13.3498 5.82433 14.0816 6.52475C14.0921 6.53521 18.4828 10.581 18.5664 10.6541C19.2041 11.1978 19.2668 11.7204 18.7651 12.2223Z" fill="#FCF3D9"/>
<path d="M10.9454 10.0791C10.0881 10.4555 9.87905 11.7623 10.5795 12.4209C11.2799 13.0795 12.9944 12.8913 13.4752 12.1072C14.3847 10.6228 12.733 9.30558 10.9454 10.0791ZM12.503 10.6228C13.0676 11.02 12.6389 12.1595 11.9176 12.1595C11.2904 12.1595 11.2277 11.041 11.8235 10.581C12.1057 10.3614 12.1371 10.3718 12.503 10.6228Z" fill="#FCF3D9"/>
</svg>
