<svg width="24" height="24" viewBox="0 0 24 24" fill="none" xmlns="http://www.w3.org/2000/svg">
<path fill-rule="evenodd" clip-rule="evenodd" d="M7.77979 4.68555C5.32158 5.45103 4.14642 8.44831 4.89035 12.0278C5.12754 13.1599 6.06554 13.1922 7.20838 12.4807C8.41592 11.7151 9.83906 10.1087 10.8849 8.04939C12.0062 5.81761 10.2488 3.90927 7.77979 4.68555ZM8.93341 5.67744C10.1518 6.39981 9.83906 7.6397 7.80137 10.0224L6.6154 11.4133L6.58307 10.3675C6.48604 7.05748 7.57495 4.86882 8.93341 5.67744ZM14.7771 6.69092C13.1059 7.46719 10.5507 10.7879 10.5507 12.1895C10.5507 13.106 11.2084 13.0736 14.4428 11.9955C16.9981 11.1437 18.2271 10.6585 18.777 9.97928C20.5991 7.74751 17.5156 5.41869 14.7771 6.69092ZM17.2999 7.70439C17.8714 8.57769 16.4698 10.3782 14.7986 10.9281C13.4293 11.3809 12.4913 11.6288 12.5884 11.4888C12.6423 11.4241 12.9765 10.982 13.3323 10.5076C15.0142 8.27582 16.8364 6.99281 17.2999 7.70439ZM10.9172 14.3889C8.55607 14.7987 7.70433 16.4159 10.5398 17.3862C11.0358 17.5588 12.1032 18.0547 12.9118 18.486C15.273 19.7689 16.4482 19.7905 17.4401 18.583C18.2056 17.6558 18.0115 16.1679 17.2784 15.0682C15.4778 12.3621 12.1895 14.1626 10.9172 14.3889ZM16.3727 15.4995C16.9873 15.8122 16.9658 16.5237 16.3188 17.2461C15.4455 18.2164 14.7124 18.1625 12.6315 16.9658L11.1221 16.1033C11.3592 16.0602 12.2111 15.92 13.6342 15.5857C14.9388 15.2622 15.8552 15.2407 16.3727 15.4995Z" fill="#FCF3D9"/>
</svg>
