<svg width="24" height="24" viewBox="0 0 24 24" fill="none" xmlns="http://www.w3.org/2000/svg">
<path fill-rule="evenodd" clip-rule="evenodd" d="M13.1667 2.64756C11.0871 3.70423 6.39944 8.92017 4.87064 11.8429C3.94886 13.6078 4.0613 13.7089 7.04023 13.8775L9.16481 14.0012C5.30907 20.7459 5.7025 20.0265 5.66877 20.0939C4.82568 21.5441 5.97229 22.5108 7.18634 21.3754C7.19758 21.3642 17.6182 13.2705 19.4842 10.5839C19.6978 10.2803 19.6416 9.93187 19.1695 9.58339C18.3939 9.01009 17.3484 8.83023 13.5376 8.51547C12.9418 8.47051 12.6721 8.40307 12.717 8.31314C12.9981 7.62742 14.0772 4.74966 14.5943 3.62554C15.2013 2.31032 15.1451 1.63585 13.1667 2.64756ZM12.391 5.16559C12.2898 5.40166 11.0421 8.39182 10.9859 8.51547C10.6936 9.10001 10.8847 9.40354 11.6154 9.48223C14.0435 9.74078 15.0102 9.83071 15.9882 9.87567C17.6069 9.95436 17.6182 9.8869 15.9095 11.6068C14.0885 13.4504 9.4346 17.722 9.33342 17.6209C9.24349 17.5309 10.7386 14.6757 11.1433 14.1473C11.874 13.1918 11.6491 13.0569 9.32217 13.0569C8.27674 13.0569 7.62475 13.0344 7.13013 13.0007C6.66924 12.967 6.3882 12.4724 6.61303 12.0565C7.45612 10.5164 8.96246 8.59417 11.4693 5.84007C12.6159 4.60353 12.6383 4.58105 12.391 5.16559Z" fill="#1D4E1A"/>
</svg>
