<svg width="24" height="24" viewBox="0 0 24 24" fill="none" xmlns="http://www.w3.org/2000/svg">
<path fill-rule="evenodd" clip-rule="evenodd" d="M9.46981 6.06047C9.4872 6.94743 10.522 8.37352 11.2263 8.10395C11.5307 7.98221 11.5307 7.85179 11.2002 6.90396C10.4089 4.65179 9.45242 5.34743 9.46981 6.06047ZM15.2089 8.06917C14.9655 8.75612 15.8089 8.87786 16.3916 8.24308C16.9829 7.59091 17.6176 6.617 17.9568 5.95613C18.3307 5.32135 17.6002 4.99961 16.9915 5.52135C16.2698 6.13004 15.3742 7.59091 15.2089 8.06917ZM3.22635 7.53874C2.68722 7.75613 4.49591 9.9996 5.22635 10.017C6.07852 10.0344 6.14807 9.84309 5.55677 9.05178C4.62633 7.79961 3.84374 7.28656 3.22635 7.53874ZM11.4003 10.7648C11.0785 11.0866 10.6959 11.53 10.5481 11.7387C9.2785 13.6344 9.2611 13.6518 8.6785 13.2083C7.33067 12.1996 5.11328 11.5127 5.54806 13.2692C5.81763 14.33 6.61764 16.2692 6.82634 16.9127C7.36547 18.6083 7.65243 18.8866 8.60895 18.6605C10.9829 18.0866 14.3742 18.0692 16.8003 18.617C17.4003 18.7561 17.4351 18.6866 17.4959 17.4779C17.6177 15.0344 19.0263 12.6518 19.0263 11.8866C19.0263 11.0257 17.4003 11.6692 15.1916 13.3996L14.9655 13.5735L14.6437 13.3561C13.9829 12.9127 13.6524 13.2605 14.0263 13.9996C14.3307 14.5996 14.5829 14.7996 15.2524 14.4779C15.635 14.2953 16.1655 13.9474 16.9133 13.417C17.2089 13.2083 17.4524 13.0605 17.4524 13.0866C17.4524 13.2083 16.922 15.4866 16.922 15.4953L15.6002 15.3822C14.5481 15.3387 14.4263 15.8953 15.5133 16.0605C15.6263 16.0779 16.7394 16.217 16.7394 16.217C16.7394 16.217 16.6959 16.7039 16.5742 16.9822C16.4437 17.2605 16.2263 17.33 15.8698 17.2083C13.0785 16.2866 8.53069 17.4083 8.52199 17.4083C8.35677 17.4344 6.84374 13.4431 6.96548 13.3213C6.98287 13.304 7.16545 13.417 7.37415 13.5735C9.73067 15.2866 9.97417 15.2344 11.5307 12.7387L12.2611 11.5648L12.5481 11.9909C13.3828 13.2344 14.5655 12.6866 13.9046 11.7735C13.6785 11.4692 13.3046 11.017 12.7046 10.3127C12.435 9.99091 12.035 10.13 11.4003 10.7648ZM22.7133 10.6344C22.4003 10.817 20.7655 12.3822 20.5742 12.6779C20.1655 13.33 21.0177 13.4779 21.7916 12.8866C22.6959 12.1996 23.9742 11.017 23.9742 10.8605C23.9829 10.5474 23.1394 10.3909 22.7133 10.6344ZM1.17417 14.7996C2.44373 15.1126 3.17415 15.1909 3.4611 15.0344C3.93067 14.7822 3.71329 14.5996 2.60024 14.3213C2.4959 14.2953 1.4698 14.0083 0.765452 14.0083C0.261105 14.0083 -0.860618 14.2866 1.17417 14.7996Z" fill="#1D4E1A"/>
</svg>
