<svg width="32" height="32" viewBox="0 0 32 32" fill="none" xmlns="http://www.w3.org/2000/svg">
<path d="M20.8966 22.08C24.2402 22.08 26.9507 19.3579 26.9507 16C26.9507 12.6421 24.2402 9.92003 20.8966 9.92003C17.7587 9.92003 15.1783 12.3176 14.8728 15.3882C13.636 14.8264 12.2997 14.4906 10.9313 14.4023C11.6942 9.56492 15.8654 5.8667 20.8966 5.8667C26.4692 5.8667 30.9867 10.4035 30.9867 16C30.9867 21.3924 26.7927 25.801 21.502 26.1154V26.1334H14.8524V25.249C14.8524 24.1001 14.3806 22.983 13.5159 22.1477C12.6488 21.3101 11.4577 20.8272 10.2011 20.8272C8.94447 20.8272 7.75339 21.3101 6.88625 22.1477C6.0216 22.983 5.54982 24.1001 5.54982 25.249V26.1334H1.12003V25.2273C1.12003 22.8588 2.09878 20.6059 3.81075 18.9589C5.46795 17.3645 7.68094 16.4612 9.98471 16.4079C10.0568 16.4062 10.1289 16.4054 10.2011 16.4054C10.257 16.4054 10.3128 16.4059 10.3687 16.4069C12.69 16.4485 14.9225 17.3532 16.5914 18.9589C17.5159 19.8483 18.2266 20.9144 18.6848 22.08H20.8966Z" fill="#FFECB8"/>
<path d="M12.0723 23.5954C12.5724 24.0194 12.8534 24.5945 12.8534 25.1941V26.1331H7.52002V25.1941C7.52002 24.5945 7.80099 24.0194 8.30105 23.5954C8.80115 23.1713 9.47946 22.9331 10.1867 22.9331C10.8939 22.9331 11.5722 23.1713 12.0723 23.5954Z" fill="#FFECB8"/>
<path d="M23.3261 14.9817C22.6298 14.9817 22.0655 14.374 22.0655 13.6242V13.2848C22.0655 12.7225 21.6422 12.2666 21.12 12.2666C20.5979 12.2666 20.1746 12.7224 20.1746 13.2848V13.6242C20.1746 14.374 19.6102 14.9817 18.914 14.9817H18.5988C18.0767 14.9817 17.6534 15.4376 17.6534 15.9999C17.6534 16.5623 18.0767 17.0181 18.5988 17.0181H18.914C19.6102 17.0181 20.1746 17.6259 20.1746 18.3757V18.7151C20.1746 19.2774 20.5979 19.7333 21.12 19.7333C21.6422 19.7333 22.0655 19.2774 22.0655 18.7151V18.3757C22.0655 17.6259 22.6298 17.0181 23.3261 17.0181H23.6412C24.1634 17.0181 24.5867 16.5623 24.5867 15.9999C24.5867 15.4376 24.1634 14.9817 23.6412 14.9817H23.3261Z" fill="#FFECB8"/>
<path d="M6.88977 7.5152C6.88977 8.42562 7.62783 9.16366 8.53826 9.16366H8.95033C9.63316 9.16366 10.1867 9.7172 10.1867 10.4C10.1867 11.0829 9.63316 11.6364 8.95033 11.6364H8.53826C7.62783 11.6364 6.88977 12.3745 6.88977 13.2848V13.697C6.88977 14.3798 6.33624 14.9334 5.65342 14.9334C4.97059 14.9334 4.41705 14.3798 4.41705 13.697V13.2849C4.41705 12.3745 3.679 11.6364 2.76857 11.6364H2.35639C1.67357 11.6364 1.12003 11.0829 1.12003 10.4C1.12003 9.7172 1.67357 9.16366 2.35639 9.16366H2.76857C3.679 9.16366 4.41705 8.42562 4.41705 7.51518V7.10306C4.41705 6.42024 4.97059 5.8667 5.65342 5.8667C6.33624 5.8667 6.88977 6.42024 6.88977 7.10306V7.5152Z" fill="#FFECB8"/>
</svg>
