<svg width="58" height="16" viewBox="0 0 58 16" fill="none" xmlns="http://www.w3.org/2000/svg">
<path fill-rule="evenodd" clip-rule="evenodd" d="M4.17744 2.3999V14.3999H0.839966V2.3999H4.17744Z" fill="#FFECB8"/>
<path fill-rule="evenodd" clip-rule="evenodd" d="M5.84619 2.3999H12.9383C15.2424 2.3999 17.1102 4.19076 17.1102 6.3999C17.1102 8.60905 15.2424 10.3999 12.9383 10.3999H9.18367V14.3999H5.84619V2.3999ZM9.18367 7.1999H12.9383C13.3992 7.1999 13.7727 6.84173 13.7727 6.3999C13.7727 5.95808 13.3992 5.5999 12.9383 5.5999H9.18367V7.1999Z" fill="#FFECB8"/>
<path fill-rule="evenodd" clip-rule="evenodd" d="M29.6258 2.3999V8.5999C29.6258 10.0358 30.8399 11.1999 32.3375 11.1999C33.8351 11.1999 35.0493 10.0358 35.0493 8.5999V2.3999H38.3868V8.5999C38.3868 11.8032 35.6784 14.3999 32.3375 14.3999C28.9966 14.3999 26.2883 11.8032 26.2883 8.5999V2.3999H29.6258Z" fill="#FFECB8"/>
<path fill-rule="evenodd" clip-rule="evenodd" d="M18.3618 7.9999C18.3618 4.9071 20.9767 2.3999 24.2024 2.3999H25.0367V5.5999H24.2024C22.8199 5.5999 21.6992 6.67443 21.6992 7.9999V8.3999C21.6992 11.7136 18.8975 14.3999 15.4415 14.3999H15.0243V11.1999H15.4415C17.0543 11.1999 18.3618 9.9463 18.3618 8.3999V7.9999Z" fill="#FFECB8"/>
<path d="M57.16 2.8001C57.16 3.46284 56.5998 4.0001 55.9083 4.0001C55.2171 4.0001 54.6569 3.46284 54.6569 2.8001C54.6569 2.13736 55.2171 1.6001 55.9083 1.6001C56.5998 1.6001 57.16 2.13736 57.16 2.8001Z" fill="#FFECB8"/>
<path d="M41.9702 14.4001L43.5629 8.00587L44.7469 11.8527C45.4528 14.147 48.8423 14.147 49.5485 11.8527L50.7322 8.00587L52.3248 14.4001H55.756L53.2519 4.34552C52.6564 1.95446 49.1422 1.86593 48.4164 4.22373L47.1477 8.34674L45.8787 4.22373C45.1532 1.86594 41.6387 1.95445 41.0431 4.34551L38.5391 14.4001H41.9702Z" fill="#FFECB8"/>
</svg>
