<svg width="32" height="32" viewBox="0 0 32 32" fill="none" xmlns="http://www.w3.org/2000/svg">
<path d="M16.8545 7.96911C17.2566 7.54994 17.8027 7.31445 18.3713 7.31445C20.9297 7.31445 23.3407 7.31445 25.715 7.31446C30.4904 7.31447 32.8817 13.3333 29.505 16.8534L22.1497 24.5211C21.812 24.8731 21.2347 24.6238 21.2347 24.126V17.3726L22.0847 16.4864C22.76 15.7824 22.2817 14.5786 21.3266 14.5786H10.5143L16.8545 7.96911Z" fill="#FFECB8"/>
<path d="M15.1454 24.0312C14.7434 24.4504 14.1973 24.6859 13.6287 24.6859C11.0703 24.6859 8.65933 24.6859 6.28504 24.6859C1.50964 24.6858 -0.881644 18.667 2.49506 15.1469L9.85033 7.47924C10.188 7.12722 10.7653 7.37653 10.7653 7.87436L10.7654 14.6277L9.91535 15.5139C9.24001 16.2179 9.7183 17.4217 10.6734 17.4217L21.4857 17.4216L15.1454 24.0312Z" fill="#FFECB8"/>
</svg>
