<svg width="24" height="24" viewBox="0 0 24 24" fill="none" xmlns="http://www.w3.org/2000/svg">
<path fill-rule="evenodd" clip-rule="evenodd" d="M12.0519 7.86672L12.2527 8.52484C12.0854 8.65869 10.6465 9.94146 10.5573 9.79645C10.5461 9.78529 8.06976 8.49137 6.39659 8.94871C4.56726 9.45066 3.23989 11.3692 3.51876 13.8009C3.84224 16.5672 8.2483 18.0731 10.4234 16.1545L10.8362 15.7864C10.9923 15.8533 12.0965 16.3776 12.275 16.3776C12.3643 16.3776 12.3866 16.4445 12.3308 16.5784C11.048 19.7686 16.3353 22.4568 18.9789 19.947C20.5629 18.4412 19.8044 14.5594 17.8635 14.3029C17.1831 14.2136 17.1272 14.4925 17.7073 15.0837C19.7151 17.1584 17.1049 21.3971 14.8405 19.7351C12.3754 17.9392 14.2048 14.2917 16.5807 14.2694C16.9042 14.2694 17.0045 14.0798 16.7591 13.9459C15.8222 13.444 14.439 13.8455 13.3681 14.9387L12.7212 15.6972C12.6097 15.6525 11.6057 15.251 11.3046 15.1171L11.5612 14.4813C12.0074 13.3659 12.0296 12.4512 11.6058 11.4696C11.2934 10.7223 11.2711 10.6219 11.4384 10.5215C11.6838 10.3765 12.7547 9.57336 12.9332 9.43951L13.5243 9.82991C16.6253 11.8823 20.5294 10.0753 20.5182 6.58396C20.5071 4.76578 19.0681 3.8065 17.5623 3.36032C13.0447 2.04409 11.2823 5.39043 12.0519 7.86672ZM18.99 6.27163C18.99 9.5622 14.9633 11.0234 13.8479 8.13443C13.4017 6.96321 13.6024 2.84721 17.1272 3.91804C18.1311 4.21921 18.99 5.06695 18.99 6.27163ZM10.4234 10.845C11.3381 12.1835 10.6019 14.9164 8.60526 15.9314C7.4452 16.5226 5.89468 15.7529 5.43735 14.3586C5.03579 13.1651 5.45968 11.6927 6.18472 10.7334C7.48979 9.00448 9.95493 10.1645 10.4234 10.845Z" fill="#1D4E1A"/>
</svg>
