<svg width="24" height="24" viewBox="0 0 24 24" fill="none" xmlns="http://www.w3.org/2000/svg">
<path d="M14.56 3.96171C14.9902 3.08702 14.4309 2.45609 13.8359 3.15155C13.3985 3.66776 12.782 5.13753 12.8895 5.41714C13.1404 6.05524 13.8287 5.45299 14.56 3.96171Z" fill="#1D4E1A"/>
<path d="M10.2798 5.72536C10.7315 5.86876 10.8892 5.60347 10.839 4.78614C10.7315 3.17298 10.2368 2.5062 9.39075 2.84317C8.98925 3.00091 9.7779 5.56763 10.2798 5.72536Z" fill="#1D4E1A"/>
<path d="M5.75581 6.14134C6.7739 6.90132 7.48366 7.23829 7.84214 7.10924C8.28666 6.95151 8.21499 6.80095 7.40482 6.16285C6.3724 5.33835 5.80597 5.09458 5.26108 5.23797C4.87392 5.33835 4.99583 5.56777 5.75581 6.14134Z" fill="#1D4E1A"/>
<path d="M14.5528 6.41371C14.309 6.67899 14.309 6.68615 14.4955 6.82237C15.026 7.20953 15.5924 6.90124 17.8365 4.98696C18.4387 4.47074 17.4422 4.06208 16.7395 4.54244C16.3739 4.79338 14.8396 6.10542 14.5528 6.41371Z" fill="#1D4E1A"/>
<path d="M23.0847 19.3333C22.8338 19.1254 22.6689 18.7382 22.5972 18.1862C22.547 17.8062 21.744 11.5256 21.3784 9.86942C21.0772 8.49286 20.2312 7.84043 19.5573 7.80458C19.1343 7.78307 18.8905 8.06268 18.7184 7.95514C18.2524 7.66118 18.1233 7.52496 17.6645 7.56798C17.4494 7.58232 16.969 7.71137 16.8041 7.85476C16.6966 7.9408 16.5604 7.9408 16.2593 7.86193C14.7823 7.4676 14.1299 8.87285 14.7966 11.0166C15.1766 12.2426 15.7215 11.7048 15.5638 10.2638C15.3559 8.35663 15.3989 8.15588 15.994 8.37097C16.3166 8.48568 16.3309 8.51436 16.3023 8.90869C16.2592 9.46075 16.6464 11.9845 16.7898 12.0777C17.1842 12.3358 17.4853 11.8769 17.3562 11.1958C17.0049 9.28868 17.2415 8.1057 17.9441 8.28494C18.1592 8.3423 18.3169 8.53587 18.3169 8.75813C18.3528 10.9162 18.3743 12.3573 19.0339 12.3573C19.4497 12.3573 19.4497 12.3716 19.3565 10.5004C19.2562 8.51437 19.4928 8.40682 19.8441 8.51436C20.3531 8.67209 20.4033 9.86225 20.4535 10.1849C20.4535 10.1921 21.5863 17.6341 21.5863 17.6484C21.7225 19.3405 22.7764 20.8246 23.5149 20.3514C23.6655 20.251 23.3858 19.5842 23.0847 19.3333Z" fill="#1D4E1A"/>
<path d="M5.37579 10.2996C5.37579 9.14529 5.39012 9.05209 5.61955 8.79398C6.02822 8.31362 6.15728 8.75097 6.23614 10.9592C6.2935 12.5724 6.30068 12.5939 6.64482 12.6943C7.08934 12.8305 7.13236 12.6226 7.08218 10.8015C7.03199 9.15963 7.03915 9.10228 7.25424 8.88719C7.69876 8.4355 7.79197 8.61475 7.97838 10.1706C8.08592 11.1169 8.07156 11.6475 7.921 12.4648C7.88515 12.6727 7.92099 12.7373 8.09306 12.7875C8.55909 12.9093 8.63795 12.7516 8.77418 11.3894C9.01077 9.03058 8.68816 8.32079 7.35461 8.30645C6.96028 8.29928 6.50859 8.24909 6.35086 8.1774C6.19313 8.11287 5.83464 8.06268 5.55503 8.06985C5.27541 8.07702 4.81655 8.05552 4.54411 8.01967C4.2143 7.97665 3.94189 8.00533 3.74831 8.09136C2.9238 8.47135 2.78041 8.91586 1.81251 14.1425C1.64761 15.0459 1.46119 16.1715 1.41101 16.6375C1.31063 17.5051 1.00949 18.516 0.607996 19.3477C0.328382 19.9212 0.392922 20.1291 0.837438 20.1291C1.63326 20.1291 2.3789 18.8386 2.55814 17.1394C2.65135 16.236 2.81626 15.8632 3.10304 13.7984C3.64793 9.81924 3.74828 9.36038 4.14978 8.89436C4.70184 8.25626 4.65165 8.46418 4.72335 12.178C4.72335 12.3358 4.86675 12.4577 5.02448 12.4433C5.31127 12.4218 5.37579 12.1565 5.37579 10.2996Z" fill="#1D4E1A"/>
<path d="M18.7471 20.1865C18.2954 19.3548 18.2595 19.3262 17.4565 19.2401C16.4815 19.1326 15.7286 18.7526 15.406 18.2077C14.6962 16.996 13.6997 13.7769 13.8144 13.0671C13.9721 12.0705 14.3019 12.1422 14.8396 13.275C15.2626 14.164 15.5423 14.4795 16.5388 15.2251C16.9834 15.5549 17.2558 15.8489 17.435 16.2002C17.6573 16.6304 17.7361 16.7021 17.9943 16.7021C18.8761 16.7021 17.8222 14.7878 16.7467 14.4437C16.2879 14.3003 16.1445 14.1784 16.1445 13.9418C16.1445 12.7588 14.4166 11.4754 13.4989 11.9773C12.7103 12.4147 12.6457 13.0743 13.1906 15.0602C14.2374 18.8673 14.8253 19.6416 16.7898 19.8137C17.5569 19.8854 17.7433 20.0144 18.1305 20.7386C18.661 21.7351 19.2705 21.054 19.1486 20.8963C19.1055 20.8318 18.9263 20.5163 18.7471 20.1865Z" fill="#1D4E1A"/>
<path d="M9.21873 12.4434C8.69535 12.6871 8.12894 13.2894 7.88518 13.863C7.70594 14.286 7.65576 14.329 7.25426 14.3935C6.37957 14.5297 5.6196 15.1822 5.50489 15.8776C5.40451 16.4942 6.03541 16.8097 6.26484 16.2504C6.56596 15.5263 7.16105 14.9671 7.81348 14.8022C8.21498 14.7018 9.01799 13.8988 9.69911 12.9381C10.1293 12.3287 10.4161 13.1532 10.1149 14.1139C9.16854 17.0821 7.94254 18.7168 6.53013 18.8745C5.93505 18.9462 5.80598 19.0681 5.29694 20.079C4.95997 20.7386 4.95281 20.7745 5.13205 20.9035C5.56223 21.219 5.9709 20.9178 6.25052 20.0862C6.4441 19.5126 6.46561 19.4839 6.90296 19.3764C8.55197 18.9534 9.3693 17.9783 10.5523 15.0459C11.4557 12.809 10.8749 11.6762 9.21873 12.4434Z" fill="#1D4E1A"/>
</svg>
