<svg width="24" height="24" viewBox="0 0 24 24" fill="none" xmlns="http://www.w3.org/2000/svg">
<path fill-rule="evenodd" clip-rule="evenodd" d="M9.93341 4.90426C8.30363 5.03569 7.96189 5.18027 8.40876 5.54828C8.52705 5.65343 9.65741 5.69286 12.1152 5.66657C16.5182 5.62714 17.2148 5.706 17.7537 6.28431C18.3189 6.8889 19.3966 7.07291 19.3966 6.56032C19.3966 6.32374 18.4635 5.46942 18.0166 5.29856C17.1228 4.95683 12.2072 4.72025 9.93341 4.90426ZM5.47782 5.9163C3.00687 8.38725 4.45262 19.1122 7.1733 18.5076C7.68589 18.3894 7.67276 18.2053 7.12074 17.9819C6.05613 17.535 5.7801 16.6676 6.05611 14.6829C6.21383 13.5526 6.24011 12.6063 6.17439 10.0827C6.08239 6.62604 6.17442 6.13973 6.92359 5.89001C7.35732 5.75857 7.12074 5.50885 6.52929 5.45628C6.04298 5.41685 5.92469 5.46942 5.47782 5.9163ZM14.7439 7.41464C13.9684 8.03238 14.4022 8.84727 15.5193 8.84727C16.3211 8.84727 16.768 8.46611 16.768 7.78265C16.768 7.11234 15.4405 6.86262 14.7439 7.41464ZM18.2531 7.69065C17.872 8.79469 17.8983 9.42558 17.8983 15.6555C17.8589 15.7738 18.2531 17.1539 16.5445 17.5219C15.8742 17.6665 14.6781 17.7059 12.1283 17.7322C7.85672 17.7979 7.64642 17.8242 8.11958 18.3762C8.86876 19.2831 16.6496 19.4803 18.3057 18.6391C19.3572 18.1002 19.8041 15.9315 19.8041 11.3182C19.7778 8.55811 18.7789 6.16602 18.2531 7.69065ZM9.21052 10.0827C7.00244 12.1462 9.10534 15.7738 12.8512 15.1692C15.2039 14.7881 16.0188 9.88559 13.6924 9.88559C13.2324 9.88559 13.1667 10.0827 13.5347 10.3719C15.4273 11.8571 13.3769 14.9589 11.09 14.2229C8.75048 13.4737 9.27624 9.7673 11.8392 9.7673C12.4175 9.7673 12.7723 9.50444 12.194 9.26785C11.6946 9.05756 10.5774 8.82098 9.21052 10.0827Z" fill="#1D4E1A"/>
</svg>
