<svg width="24" height="24" viewBox="0 0 24 24" fill="none" xmlns="http://www.w3.org/2000/svg">
<path d="M18.9556 4.92163V5.00184C18.9556 5.16226 18.8888 5.40289 18.7551 5.72372C18.6214 6.01782 18.461 6.33866 18.2739 6.68623C18.1135 7.00707 17.9397 7.31453 17.7525 7.60863C17.5921 7.90273 17.4851 8.10325 17.4317 8.2102C17.298 8.42409 17.1643 8.63798 17.0306 8.85187C16.8969 9.03902 16.8301 9.18607 16.8301 9.29302C16.8301 9.50691 16.8836 9.70743 16.9905 9.89459C17.0975 10.0817 17.1509 10.3224 17.1509 10.6165C17.0707 10.6432 16.9905 10.7769 16.9103 11.0175C16.8568 11.2314 16.8301 11.4052 16.8301 11.5389C16.8301 11.8864 16.9103 12.1672 17.0707 12.3811C17.2579 12.5682 17.3782 12.7821 17.4317 13.0227C17.4851 13.2366 17.5386 13.5174 17.5921 13.8649C17.6723 14.2125 17.7391 14.5734 17.7926 14.9477C17.8728 15.3221 17.9397 15.683 17.9931 16.0306C18.0466 16.3781 18.0733 16.6722 18.0733 16.9129C18.0733 17.207 17.9931 17.4877 17.8327 17.7551C17.699 18.0224 17.5119 18.263 17.2713 18.4769C17.0574 18.6908 16.8301 18.878 16.5895 19.0384C16.3489 19.1721 16.135 19.2523 15.9478 19.279H15.9879C15.9879 19.3058 15.8141 19.386 15.4666 19.5197C15.1457 19.6266 14.8383 19.6801 14.5442 19.6801C14.4639 19.6801 14.3436 19.6533 14.1832 19.5999H14.2233C14.2233 19.5731 14.1698 19.5197 14.0629 19.4394C13.956 19.3325 13.8356 19.2256 13.702 19.1186C13.595 18.9849 13.4881 18.8646 13.3811 18.7577C13.2742 18.6507 13.2207 18.5705 13.2207 18.517C13.2207 18.4101 13.2207 18.3165 13.2207 18.2363C13.2474 18.1294 13.2608 18.0358 13.2608 17.9556C13.2608 17.9823 13.1672 17.7551 12.9801 17.2738C12.8197 16.7925 12.7127 16.1776 12.6592 15.429C12.7127 15.429 12.7662 15.3889 12.8197 15.3087C12.8999 15.2285 12.94 15.1616 12.94 15.1082C12.94 14.9477 12.8865 14.7873 12.7796 14.6269C12.6994 14.4398 12.6592 14.1991 12.6592 13.905C12.6592 13.5307 12.7395 13.0762 12.8999 12.5415C13.0603 11.98 13.1806 11.4319 13.2608 10.8972C13.2875 10.817 13.3678 10.6699 13.5014 10.456C13.6351 10.2154 13.7822 9.96143 13.9426 9.69406C14.103 9.4267 14.2501 9.18607 14.3837 8.97218C14.5174 8.73156 14.5976 8.57114 14.6244 8.49093C14.7046 8.06315 14.7981 7.75568 14.9051 7.56853C15.0388 7.38137 15.1725 7.23432 15.3061 7.12738C15.4398 7.02043 15.6002 6.91349 15.7874 6.80654C15.9745 6.67286 16.1884 6.4456 16.4291 6.12477V6.08466C16.4291 6.03119 16.4157 5.96435 16.389 5.88414C16.389 5.80393 16.389 5.72372 16.389 5.64351C16.389 5.56331 16.4023 5.50983 16.4291 5.4831C16.4825 5.45636 16.5627 5.38952 16.6697 5.28257C16.7766 5.14889 16.8969 5.01521 17.0306 4.88153C17.191 4.72111 17.3381 4.58743 17.4718 4.48049C17.6322 4.37354 17.7792 4.32007 17.9129 4.32007C18.0199 4.32007 18.1937 4.38691 18.4343 4.52059C18.7016 4.65427 18.8754 4.78795 18.9556 4.92163ZM11.5764 4.92163V5.00184C11.5764 5.16226 11.5096 5.40289 11.3759 5.72372C11.2422 6.01782 11.0818 6.33866 10.8947 6.68623C10.7342 7.00707 10.5604 7.31453 10.3733 7.60863C10.2129 7.90273 10.1059 8.10325 10.0525 8.2102C9.91878 8.42409 9.78509 8.63798 9.65141 8.85187C9.51773 9.03902 9.45089 9.18607 9.45089 9.29302C9.45089 9.50691 9.50436 9.70743 9.61131 9.89459C9.71825 10.0817 9.77173 10.3224 9.77173 10.6165C9.69152 10.6432 9.61131 10.7769 9.5311 11.0175C9.47763 11.2314 9.45089 11.4052 9.45089 11.5389C9.45089 11.8864 9.5311 12.1672 9.69152 12.3811C9.87867 12.5682 9.99898 12.7821 10.0525 13.0227C10.1059 13.2366 10.1594 13.5174 10.2129 13.8649C10.2931 14.2125 10.3599 14.5734 10.4134 14.9477C10.4936 15.3221 10.5604 15.683 10.6139 16.0306C10.6674 16.3781 10.6941 16.6722 10.6941 16.9129C10.6941 17.207 10.6139 17.4877 10.4535 17.7551C10.3198 18.0224 10.1327 18.263 9.89204 18.4769C9.67815 18.6908 9.45089 18.878 9.21026 19.0384C8.96964 19.1721 8.75575 19.2523 8.56859 19.279H8.6087C8.6087 19.3058 8.43491 19.386 8.08734 19.5197C7.7665 19.6266 7.45904 19.6801 7.16494 19.6801C7.08473 19.6801 6.96442 19.6533 6.804 19.5999H6.8441C6.8441 19.5731 6.79063 19.5197 6.68368 19.4394C6.57674 19.3325 6.45643 19.2256 6.32274 19.1186C6.2158 18.9849 6.10885 18.8646 6.00191 18.7577C5.89496 18.6507 5.84149 18.5705 5.84149 18.517C5.84149 18.4101 5.84149 18.3165 5.84149 18.2363C5.86823 18.1294 5.8816 18.0358 5.8816 17.9556C5.8816 17.9823 5.78802 17.7551 5.60086 17.2738C5.44045 16.7925 5.3335 16.1776 5.28003 15.429C5.3335 15.429 5.38697 15.3889 5.44045 15.3087C5.52066 15.2285 5.56076 15.1616 5.56076 15.1082C5.56076 14.9477 5.50729 14.7873 5.40034 14.6269C5.32013 14.4398 5.28003 14.1991 5.28003 13.905C5.28003 13.5307 5.36024 13.0762 5.52066 12.5415C5.68107 11.98 5.80139 11.4319 5.8816 10.8972C5.90833 10.817 5.98854 10.6699 6.12222 10.456C6.2559 10.2154 6.40295 9.96143 6.56337 9.69406C6.72379 9.4267 6.87084 9.18607 7.00452 8.97218C7.1382 8.73156 7.21841 8.57114 7.24515 8.49093C7.32536 8.06315 7.41893 7.75568 7.52588 7.56853C7.65956 7.38137 7.79324 7.23432 7.92692 7.12738C8.0606 7.02043 8.22102 6.91349 8.40818 6.80654C8.59533 6.67286 8.80922 6.4456 9.04985 6.12477V6.08466C9.04985 6.03119 9.03648 5.96435 9.00974 5.88414C9.00974 5.80393 9.00974 5.72372 9.00974 5.64351C9.00974 5.56331 9.02311 5.50983 9.04985 5.4831C9.10332 5.45636 9.18353 5.38952 9.29047 5.28257C9.39742 5.14889 9.51773 5.01521 9.65141 4.88153C9.81183 4.72111 9.95888 4.58743 10.0926 4.48049C10.253 4.37354 10.4 4.32007 10.5337 4.32007C10.6407 4.32007 10.8144 4.38691 11.0551 4.52059C11.3224 4.65427 11.4962 4.78795 11.5764 4.92163Z" fill="#1D4E1A"/>
</svg>
