<svg width="24" height="24" viewBox="0 0 24 24" fill="none" xmlns="http://www.w3.org/2000/svg">
<path d="M19.8075 9.77941L19.4734 8.65182L19.8492 8.1611C21.2379 6.33399 18.659 3.47325 16.6126 4.56952C16.3934 4.68436 16.1324 4.6948 15.7565 4.60084C15.0674 4.42335 12.8123 4.04748 12.3529 3.99528C10.8285 3.80735 11.2461 4.54863 11.9039 4.61128C13.3865 4.76789 13.3551 4.68436 12.9584 5.10199C12.3424 5.75975 12.8749 8.32815 13.8563 9.44531C14.7438 10.4581 16.8945 11.001 17.5627 10.3745C18.8887 9.12165 18.5233 14.9267 17.1556 16.7016C12.8958 22.2456 3.91677 16.8999 5.53507 9.77941L5.72304 8.94415L6.49564 9.45575C7.84248 10.3536 8.39582 9.9047 7.36219 8.75622C5.6708 6.88734 6.24507 4.50687 8.01998 6.02077C8.6151 6.53236 9.34596 6.60545 9.64874 6.19826C10.5466 4.96626 11.0791 5.40477 11.0686 6.72029C11.0686 7.43026 10.7345 7.91053 9.36682 9.18429C8.16614 10.3014 8.11394 10.6773 9.15801 10.6773C9.85753 10.6773 12.1231 7.99405 12.3215 6.93954C12.6034 5.45697 10.5988 4.24585 9.40857 5.17507C9.13712 5.39433 8.9701 5.43609 8.86569 5.33168C8.76128 5.22728 8.78215 5.03934 9.11625 4.85141C9.45036 4.66348 9.96195 4.51731 9.8471 4.20409C9.69049 3.78647 8.53157 4.32938 8.37496 4.42334C8.21835 4.50687 7.65455 4.87229 7.17428 4.87229C5.52465 4.87229 4.89821 5.37344 5.03394 6.57412C5.10703 7.24232 5.06528 7.43026 4.68942 8.09846C1.75559 13.2979 5.72303 19.8651 11.8726 19.9904C18.1265 20.1366 21.5615 15.6993 19.8075 9.77941ZM17.6985 8.69358C16.5709 9.94646 16.4038 9.99866 15.4746 9.45575C14.7333 9.01724 14.1278 7.8792 14.0025 6.67853C13.8772 5.41521 14.5245 5.08111 15.6312 5.83284L16.1742 6.2087L16.717 5.85372C18.2727 4.82009 20.3191 5.79108 17.6985 8.69358Z" fill="#1D4E1A"/>
<path d="M6.85068 12.1077C6.92376 12.3269 7.08036 13.0578 7.20565 13.7364C8.13487 18.8002 16.2577 18.7062 16.6754 13.632C16.7276 13.0056 16.8424 12.4522 16.9259 12.4C17.6568 11.9302 15.7044 11.3038 14.3262 11.5752C13.8981 11.6587 12.259 11.6796 10.3066 11.6274C6.69408 11.523 6.67319 11.523 6.85068 12.1077ZM15.7044 12.4522V13.2248C15.7044 16.096 10.578 17.6726 8.87616 15.313C8.29148 14.509 8.30194 14.0183 8.21842 12.5044C13.0211 12.3478 13.136 12.3687 15.7044 12.4522Z" fill="#1D4E1A"/>
</svg>
